<?xml version="1.0" encoding="iso-8859-1"?>
<!-- Generator: Adobe Illustrator 19.0.0, SVG Export Plug-In . SVG Version: 6.00 Build 0)  -->
<svg xmlns="http://www.w3.org/2000/svg" xmlns:xlink="http://www.w3.org/1999/xlink" version="1.1" id="Layer_1" x="0px" y="0px" viewBox="0 0 512.001 512.001" style="enable-background:new 0 0 512.001 512.001;" xml:space="preserve" width="512px" height="512px">
<g>
	<g>
		<path d="M499.987,441.994L357.588,299.594c-3.984-3.983-10.44-3.983-14.425,0l-14.578,14.578l-21.924-21.924    c27.654-31.039,44.488-71.92,44.488-116.664c0-96.812-78.763-175.575-175.575-175.575S0,78.772,0,175.585    s78.763,175.575,175.575,175.575c44.744,0,85.624-16.833,116.664-44.487l21.924,21.924l-14.578,14.578    c-3.983,3.983-3.983,10.441,0,14.425l142.398,142.398c0,0,0,0,0.001,0c7.996,7.995,18.498,11.993,29.001,11.993    c10.503,0,21.006-3.998,29.001-11.993c7.748-7.746,12.014-18.046,12.014-29.001C512,460.039,507.734,449.74,499.987,441.994z     M175.575,330.761c-85.565,0-155.177-69.612-155.177-155.176c0-85.565,69.612-155.177,155.177-155.177    S330.752,90.02,330.752,175.585S261.14,330.761,175.575,330.761z M485.563,485.573c-8.037,8.038-21.115,8.039-29.156,0h0.001    L321.221,350.386l29.155-29.155l135.187,135.186c3.893,3.894,6.038,9.071,6.038,14.578    C491.602,476.502,489.457,481.679,485.563,485.573z" fill="#FFFFFF"/>
	</g>
</g>
<g>
	<g>
		<path d="M58.309,182.024c-0.115-2.13-0.173-4.297-0.173-6.44c0-5.633-4.566-10.199-10.199-10.199    c-5.633,0-10.199,4.566-10.199,10.199c0,2.508,0.068,5.046,0.203,7.54c0.294,5.437,4.795,9.649,10.176,9.649    c0.186,0,0.372-0.005,0.559-0.015C54.3,192.456,58.613,187.65,58.309,182.024z" fill="#FFFFFF"/>
	</g>
</g>
<g>
	<g>
		<path d="M175.575,293.024c-44.357,0-84.459-24.559-104.654-64.091c-2.563-5.016-8.704-7.006-13.723-4.443    c-5.016,2.563-7.006,8.706-4.443,13.723c23.699,46.391,70.761,75.21,122.819,75.21c5.633,0,10.199-4.566,10.199-10.199    S181.208,293.024,175.575,293.024z" fill="#FFFFFF"/>
	</g>
</g>
<g>
</g>
<g>
</g>
<g>
</g>
<g>
</g>
<g>
</g>
<g>
</g>
<g>
</g>
<g>
</g>
<g>
</g>
<g>
</g>
<g>
</g>
<g>
</g>
<g>
</g>
<g>
</g>
<g>
</g>
</svg>
